<?xml version="1.0" encoding="UTF-8"?>
<svg xmlns="http://www.w3.org/2000/svg" viewBox="0 0 64 128" width="64" height="128" aria-label="aquatic plant 2">
  <g fill="currentColor">
    <path d="M28 124 C 26 100, 22 82, 16 66 C 10 50, 8 40, 10 32 C 12 26, 18 24, 22 26 C 26 28, 28 34, 28 40 C 28 48, 26 56, 28 66 C 30 76, 34 90, 34 100 C 34 112, 32 120, 28 124 Z"/>
    <path d="M36 124 C 40 102, 44 86, 50 72 C 54 62, 56 52, 54 44 C 52 36, 46 32, 42 34 C 38 36, 36 42, 36 48 C 36 56, 38 64, 38 72 C 38 86, 36 106, 36 124 Z"/>
  </g>
</svg>

