<?xml version="1.0" encoding="UTF-8"?>
<svg xmlns="http://www.w3.org/2000/svg" viewBox="0 0 800 450" width="800" height="450" aria-label="aerator bubbles">
  <defs>
    <!-- Bubble gradient -->
    <radialGradient id="bubbleGradient" cx="30%" cy="30%" r="70%">
      <stop offset="0%" style="stop-color:#FFFFFF;stop-opacity:0.9" />
      <stop offset="50%" style="stop-color:#E0F6FF;stop-opacity:0.7" />
      <stop offset="100%" style="stop-color:#87CEEB;stop-opacity:0.3" />
    </radialGradient>

    <!-- Large bubble gradient -->
    <radialGradient id="largeBubbleGradient" cx="25%" cy="25%" r="75%">
      <stop offset="0%" style="stop-color:#FFFFFF;stop-opacity:1" />
      <stop offset="30%" style="stop-color:#F0F8FF;stop-opacity:0.8" />
      <stop offset="100%" style="stop-color:#B0E0E6;stop-opacity:0.4" />
    </radialGradient>
  </defs>

  <!-- Main bubble streams from aerator -->
  <g class="bubble-stream-1" opacity="0.8">
    <circle cx="300" cy="400" r="8" fill="url(#largeBubbleGradient)" />
    <circle cx="295" cy="375" r="6" fill="url(#bubbleGradient)" />
    <circle cx="305" cy="350" r="7" fill="url(#bubbleGradient)" />
    <circle cx="298" cy="325" r="5" fill="url(#bubbleGradient)" />
    <circle cx="308" cy="300" r="6" fill="url(#bubbleGradient)" />
    <circle cx="302" cy="275" r="4" fill="url(#bubbleGradient)" />
    <circle cx="310" cy="250" r="5" fill="url(#bubbleGradient)" />
    <circle cx="305" cy="225" r="3.5" fill="url(#bubbleGradient)" />
    <circle cx="312" cy="200" r="4" fill="url(#bubbleGradient)" />
    <circle cx="308" cy="175" r="3" fill="url(#bubbleGradient)" />
    <circle cx="315" cy="150" r="3.5" fill="url(#bubbleGradient)" />
    <circle cx="312" cy="125" r="2.5" fill="url(#bubbleGradient)" />
    <circle cx="318" cy="100" r="3" fill="url(#bubbleGradient)" />
    <circle cx="315" cy="75" r="2" fill="url(#bubbleGradient)" />
    <circle cx="320" cy="50" r="2.5" fill="url(#bubbleGradient)" />
    <circle cx="318" cy="25" r="1.5" fill="url(#bubbleGradient)" />
  </g>

  <g class="bubble-stream-2" opacity="0.7">
    <circle cx="400" cy="400" r="7" fill="url(#largeBubbleGradient)" />
    <circle cx="408" cy="375" r="5" fill="url(#bubbleGradient)" />
    <circle cx="395" cy="350" r="6" fill="url(#bubbleGradient)" />
    <circle cx="405" cy="325" r="4" fill="url(#bubbleGradient)" />
    <circle cx="398" cy="300" r="5" fill="url(#bubbleGradient)" />
    <circle cx="408" cy="275" r="3.5" fill="url(#bubbleGradient)" />
    <circle cx="402" cy="250" r="4" fill="url(#bubbleGradient)" />
    <circle cx="410" cy="225" r="3" fill="url(#bubbleGradient)" />
    <circle cx="405" cy="200" r="3.5" fill="url(#bubbleGradient)" />
    <circle cx="412" cy="175" r="2.5" fill="url(#bubbleGradient)" />
    <circle cx="408" cy="150" r="3" fill="url(#bubbleGradient)" />
    <circle cx="415" cy="125" r="2" fill="url(#bubbleGradient)" />
    <circle cx="412" cy="100" r="2.5" fill="url(#bubbleGradient)" />
    <circle cx="418" cy="75" r="1.8" fill="url(#bubbleGradient)" />
    <circle cx="415" cy="50" r="2" fill="url(#bubbleGradient)" />
  </g>

  <g class="bubble-stream-3" opacity="0.6">
    <circle cx="500" cy="400" r="6" fill="url(#bubbleGradient)" />
    <circle cx="492" cy="375" r="4.5" fill="url(#bubbleGradient)" />
    <circle cx="508" cy="350" r="5" fill="url(#bubbleGradient)" />
    <circle cx="495" cy="325" r="3.5" fill="url(#bubbleGradient)" />
    <circle cx="505" cy="300" r="4" fill="url(#bubbleGradient)" />
    <circle cx="498" cy="275" r="3" fill="url(#bubbleGradient)" />
    <circle cx="508" cy="250" r="3.5" fill="url(#bubbleGradient)" />
    <circle cx="502" cy="225" r="2.5" fill="url(#bubbleGradient)" />
    <circle cx="510" cy="200" r="3" fill="url(#bubbleGradient)" />
    <circle cx="505" cy="175" r="2" fill="url(#bubbleGradient)" />
    <circle cx="512" cy="150" r="2.5" fill="url(#bubbleGradient)" />
    <circle cx="508" cy="125" r="1.8" fill="url(#bubbleGradient)" />
    <circle cx="515" cy="100" r="2" fill="url(#bubbleGradient)" />
    <circle cx="512" cy="75" r="1.5" fill="url(#bubbleGradient)" />
  </g>

  <!-- Scattered small bubbles -->
  <g class="scattered-bubbles" opacity="0.5">
    <circle cx="250" cy="350" r="2" fill="url(#bubbleGradient)" />
    <circle cx="350" cy="320" r="1.5" fill="url(#bubbleGradient)" />
    <circle cx="450" cy="340" r="2.5" fill="url(#bubbleGradient)" />
    <circle cx="550" cy="310" r="1.8" fill="url(#bubbleGradient)" />
    <circle cx="280" cy="280" r="1.5" fill="url(#bubbleGradient)" />
    <circle cx="380" cy="260" r="2" fill="url(#bubbleGradient)" />
    <circle cx="480" cy="290" r="1.3" fill="url(#bubbleGradient)" />
    <circle cx="320" cy="220" r="1.8" fill="url(#bubbleGradient)" />
    <circle cx="420" cy="240" r="1.5" fill="url(#bubbleGradient)" />
    <circle cx="520" cy="210" r="2" fill="url(#bubbleGradient)" />
    <circle cx="270" cy="180" r="1.2" fill="url(#bubbleGradient)" />
    <circle cx="370" cy="160" r="1.6" fill="url(#bubbleGradient)" />
    <circle cx="470" cy="190" r="1.4" fill="url(#bubbleGradient)" />
    <circle cx="330" cy="120" r="1.3" fill="url(#bubbleGradient)" />
    <circle cx="430" cy="140" r="1.1" fill="url(#bubbleGradient)" />
  </g>
</svg>

