<?xml version="1.0" encoding="UTF-8"?>
<svg xmlns="http://www.w3.org/2000/svg" viewBox="0 0 64 128" width="64" height="128" aria-label="aquatic plant 1">
  <g fill="currentColor">
    <path d="M30 124 C 28 96, 24 76, 16 56 C 10 42, 8 30, 12 20 C 14 14, 20 10, 24 12 C 28 14, 28 20, 26 28 C 22 44, 24 60, 30 80 C 36 100, 38 114, 36 124 Z"/>
    <path d="M40 124 C 44 96, 48 78, 52 62 C 54 52, 56 44, 56 36 C 56 30, 52 26, 48 28 C 44 30, 42 36, 40 44 C 36 60, 34 80, 34 96 C 34 110, 36 120, 40 124 Z"/>
  </g>
</svg>

